<svg style="position: absolute; width: 0; height: 0; overflow: hidden;" version="1.1" xmlns="http://www.w3.org/2000/svg" xmlns:xlink="http://www.w3.org/1999/xlink">
<defs>
<symbol id="icon-shopping-cart" viewBox="0 0 490.666 490.666">
<g>
	<g>
		<path d="M394.667,373.333c-29.397,0-53.333,23.936-53.333,53.333S365.269,480,394.667,480S448,456.064,448,426.666
			S424.064,373.333,394.667,373.333z M394.667,458.666c-17.643,0-32-14.357-32-32c0-17.643,14.357-32,32-32
			c17.643,0,32,14.357,32,32C426.667,444.309,412.309,458.666,394.667,458.666z"/>
	</g>
</g>
<g>
	<g>
		<path d="M181.333,373.333c-29.397,0-53.333,23.936-53.333,53.333S151.936,480,181.333,480s53.333-23.936,53.333-53.333
			S210.731,373.333,181.333,373.333z M181.333,458.666c-17.643,0-32-14.357-32-32c0-17.643,14.357-32,32-32s32,14.357,32,32
			C213.333,444.309,198.976,458.666,181.333,458.666z"/>
	</g>
</g>
<g>
	<g>
		<path d="M437.333,330.666H191.125c-25.323,0-47.317-18.027-52.288-42.88L85.12,19.242c-1.003-4.992-5.376-8.576-10.453-8.576h-64
			C4.779,10.666,0,15.445,0,21.333S4.779,32,10.667,32H65.92l51.989,259.989c6.955,34.773,37.76,60.011,73.216,60.011h246.208
			c5.888,0,10.667-4.779,10.667-10.667C448,335.445,443.221,330.666,437.333,330.666z"/>
	</g>
</g>
<g>
	<g>
		<path d="M488,78.272c-2.027-2.283-4.928-3.605-8-3.605H96c-5.888,0-10.667,4.779-10.667,10.667S90.112,96,96,96h371.925
			l-15.168,121.301c-2.005,15.979-15.659,28.032-31.765,28.032H128c-5.888,0-10.667,4.779-10.667,10.667
			c0,5.888,4.779,10.667,10.667,10.667h292.992c26.837,0,49.6-20.075,52.928-46.72l16.661-133.291
			C490.965,83.626,490.027,80.554,488,78.272z"/>
	</g>
</g>
</symbol>
<symbol id="icon-search" viewBox="0 0 23 23">
	<path d="M38.710696,48.0601792 L43,52.3494831 L41.3494831,54 L37.0601792,49.710696 C35.2632422,51.1481185 32.9839107,52.0076499 30.5038249,52.0076499 C24.7027226,52.0076499 20,47.3049272 20,41.5038249 C20,35.7027226 24.7027226,31 30.5038249,31 C36.3049272,31 41.0076499,35.7027226 41.0076499,41.5038249 C41.0076499,43.9839107 40.1481185,46.2632422 38.710696,48.0601792 Z M36.3875844,47.1716785 C37.8030221,45.7026647 38.6734666,43.7048964 38.6734666,41.5038249 C38.6734666,36.9918565 35.0157934,33.3341833 30.5038249,33.3341833 C25.9918565,33.3341833 22.3341833,36.9918565 22.3341833,41.5038249 C22.3341833,46.0157934 25.9918565,49.6734666 30.5038249,49.6734666 C32.7048964,49.6734666 34.7026647,48.8030221 36.1716785,47.3875844 C36.2023931,47.347638 36.2360451,47.3092237 36.2726343,47.2726343 C36.3092237,47.2360451 36.347638,47.2023931 36.3875844,47.1716785 Z" transform="translate(-20 -31)"/>
</symbol>
<symbol id="icon-cross" viewBox="0 0 16 16">
	<polygon points="6.852 7.649 .399 1.195 1.445 .149 7.899 6.602 14.352 .149 15.399 1.195 8.945 7.649 15.399 14.102 14.352 15.149 7.899 8.695 1.445 15.149 .399 14.102"/>
</symbol>
</defs>
</svg>