<svg style="position: absolute; width: 0; height: 0; overflow: hidden;" version="1.1" xmlns="http://www.w3.org/2000/svg" xmlns:xlink="http://www.w3.org/1999/xlink">
<defs>
<symbol id="icon-vk" viewBox="0 0 20 20">
	<path fill-rule="evenodd" clip-rule="evenodd" d="M13.0667 0H6.93333C1.33333 0 0 1.33333 0 6.93333V13.0667C0 18.6667 1.33333 20 6.93333 20H13.0667C18.6667 20 20 18.6667 20 13.0667V6.93333C20 1.33333 18.6667 0 13.0667 0ZM15.9375 6.35417C16.3785 6.35417 16.4712 6.58123 16.3785 6.89023C16.1931 7.73996 14.4164 10.2429 14.4164 10.2429C14.2619 10.49 14.2001 10.6137 14.4164 10.8917C14.4925 10.9984 14.6551 11.1576 14.841 11.3398C15.0323 11.5271 15.2483 11.7387 15.4206 11.9424C16.0471 12.6471 16.5192 13.2416 16.6507 13.6514C16.7709 14.0625 16.5625 14.2708 16.1459 14.2708H14.6875C14.2969 14.2708 14.1002 14.052 13.6752 13.5792C13.4951 13.3788 13.2739 13.1328 12.9795 12.8385C12.1143 12.0042 11.7435 11.896 11.5272 11.896C11.2337 11.896 11.1459 11.9792 11.1459 12.3958V13.7036C11.1459 14.0625 11.0312 14.2708 10.1042 14.2708C8.55919 14.2708 6.86131 13.3328 5.65623 11.6025C3.8486 9.06867 3.35419 7.15287 3.35419 6.7666C3.35419 6.55031 3.43753 6.35417 3.85419 6.35417H5.31253C5.68524 6.35417 5.82543 6.51729 5.96521 6.92112C6.67846 8.9988 7.88104 10.8145 8.37543 10.8145C8.56083 10.8145 8.64586 10.7292 8.64586 10.2583V8.11077C8.61239 7.49946 8.39885 7.23509 8.24068 7.03927C8.14301 6.91835 8.06645 6.82357 8.06645 6.68937C8.06645 6.52627 8.20581 6.35417 8.43753 6.35417H10.7292C11.0382 6.35417 11.1458 6.51942 11.1458 6.89023V9.77937C11.1458 10.0883 11.28 10.1965 11.3727 10.1965C11.5581 10.1965 11.7126 10.0884 12.0525 9.74846C13.1031 8.57426 13.8447 6.7666 13.8447 6.7666C13.9374 6.55031 14.1084 6.35417 14.4792 6.35417H15.9375Z"/>
</symbol>
<symbol id="icon-instagram" viewBox="0 0 20 20">
	<path d="M6.66747 10C6.66747 8.15912 8.15945 6.6664 10.0004 6.6664C11.8414 6.6664 13.3341 8.15912 13.3341 10C13.3341 11.8409 11.8414 13.3336 10.0004 13.3336C8.15945 13.3336 6.66747 11.8409 6.66747 10ZM4.86531 10C4.86531 12.836 7.16429 15.1349 10.0004 15.1349C12.8365 15.1349 15.1355 12.836 15.1355 10C15.1355 7.164 12.8365 4.86512 10.0004 4.86512C7.16429 4.86512 4.86531 7.164 4.86531 10ZM14.1387 4.66152C14.1386 4.89886 14.2089 5.13089 14.3407 5.32829C14.4725 5.52568 14.6598 5.67956 14.8791 5.77047C15.0983 5.86138 15.3396 5.88524 15.5724 5.83904C15.8052 5.79283 16.0191 5.67862 16.187 5.51087C16.3549 5.34311 16.4693 5.12934 16.5157 4.89658C16.5621 4.66382 16.5384 4.42253 16.4477 4.20322C16.3569 3.98392 16.2032 3.79644 16.0059 3.6645C15.8086 3.53257 15.5766 3.4621 15.3393 3.462H15.3388C15.0206 3.46215 14.7156 3.58856 14.4905 3.81347C14.2655 4.03837 14.139 4.34339 14.1387 4.66152ZM5.96024 18.1398C4.98524 18.0954 4.4553 17.933 4.10312 17.7958C3.63623 17.614 3.30309 17.3975 2.95284 17.0478C2.60258 16.698 2.38578 16.3652 2.20481 15.8983C2.06752 15.5463 1.90512 15.0162 1.86079 14.0413C1.81231 12.9872 1.80263 12.6706 1.80263 10.0001C1.80263 7.3296 1.81311 7.01384 1.86079 5.95888C1.9052 4.98392 2.0688 4.45488 2.20481 4.10184C2.38658 3.63496 2.60306 3.30184 2.95284 2.9516C3.30261 2.60136 3.63543 2.38456 4.10312 2.2036C4.45514 2.06632 4.98524 1.90392 5.96024 1.8596C7.01436 1.81112 7.33101 1.80144 10.0004 1.80144C12.6698 1.80144 12.9868 1.81192 14.0418 1.8596C15.0168 1.904 15.5458 2.0676 15.8989 2.2036C16.3658 2.38456 16.6989 2.60184 17.0492 2.9516C17.3994 3.30136 17.6154 3.63496 17.7972 4.10184C17.9345 4.45384 18.0969 4.98392 18.1412 5.95888C18.1897 7.01384 18.1994 7.3296 18.1994 10.0001C18.1994 12.6706 18.1897 12.9863 18.1412 14.0413C18.0968 15.0162 17.9336 15.5462 17.7972 15.8983C17.6154 16.3652 17.3989 16.6983 17.0492 17.0478C16.6994 17.3972 16.3658 17.614 15.8989 17.7958C15.5469 17.933 15.0168 18.0954 14.0418 18.1398C12.9876 18.1882 12.671 18.1979 10.0004 18.1979C7.32981 18.1979 7.01404 18.1882 5.96024 18.1398ZM5.87744 0.06056C4.81283 0.10904 4.08536 0.27784 3.45006 0.52504C2.79211 0.78032 2.23513 1.1228 1.67855 1.67848C1.12196 2.23416 0.780351 2.792 0.525061 3.44992C0.277851 4.0856 0.109044 4.81264 0.0605624 5.8772C0.0112805 6.94344 0 7.28432 0 10C0 12.7157 0.0112805 13.0566 0.0605624 14.1228C0.109044 15.1874 0.277851 15.9144 0.525061 16.5501C0.780351 17.2076 1.12205 17.7661 1.67855 18.3215C2.23505 18.877 2.79211 19.219 3.45006 19.475C4.08656 19.7222 4.81283 19.891 5.87744 19.9394C6.94428 19.9879 7.28461 20 10.0004 20C12.7162 20 13.0571 19.9887 14.1234 19.9394C15.188 19.891 15.915 19.7222 16.5507 19.475C17.2083 19.219 17.7657 18.8772 18.3223 18.3215C18.8788 17.7658 19.2197 17.2076 19.4757 16.5501C19.723 15.9144 19.8926 15.1874 19.9402 14.1228C19.9887 13.0558 20 12.7157 20 10C20 7.28432 19.9887 6.94344 19.9402 5.8772C19.8918 4.81256 19.723 4.0852 19.4757 3.44992C19.2197 2.7924 18.878 2.23504 18.3223 1.67848C17.7666 1.12192 17.2083 0.78032 16.5515 0.52504C15.915 0.27784 15.188 0.10824 14.1242 0.06056C13.0579 0.01208 12.717 0 10.0012 0C7.28541 0 6.94428 0.01128 5.87744 0.06056Z"/>
	<path d="M6.66747 10C6.66747 8.15912 8.15945 6.6664 10.0004 6.6664C11.8414 6.6664 13.3341 8.15912 13.3341 10C13.3341 11.8409 11.8414 13.3336 10.0004 13.3336C8.15945 13.3336 6.66747 11.8409 6.66747 10ZM4.86531 10C4.86531 12.836 7.16429 15.1349 10.0004 15.1349C12.8365 15.1349 15.1355 12.836 15.1355 10C15.1355 7.164 12.8365 4.86512 10.0004 4.86512C7.16429 4.86512 4.86531 7.164 4.86531 10ZM14.1387 4.66152C14.1386 4.89886 14.2089 5.13089 14.3407 5.32829C14.4725 5.52568 14.6598 5.67956 14.8791 5.77047C15.0983 5.86138 15.3396 5.88524 15.5724 5.83904C15.8052 5.79283 16.0191 5.67862 16.187 5.51087C16.3549 5.34311 16.4693 5.12934 16.5157 4.89658C16.5621 4.66382 16.5384 4.42253 16.4477 4.20322C16.3569 3.98392 16.2032 3.79644 16.0059 3.6645C15.8086 3.53257 15.5766 3.4621 15.3393 3.462H15.3388C15.0206 3.46215 14.7156 3.58856 14.4905 3.81347C14.2655 4.03837 14.139 4.34339 14.1387 4.66152ZM5.96024 18.1398C4.98524 18.0954 4.4553 17.933 4.10312 17.7958C3.63623 17.614 3.30309 17.3975 2.95284 17.0478C2.60258 16.698 2.38578 16.3652 2.20481 15.8983C2.06752 15.5463 1.90512 15.0162 1.86079 14.0413C1.81231 12.9872 1.80263 12.6706 1.80263 10.0001C1.80263 7.3296 1.81311 7.01384 1.86079 5.95888C1.9052 4.98392 2.0688 4.45488 2.20481 4.10184C2.38658 3.63496 2.60306 3.30184 2.95284 2.9516C3.30261 2.60136 3.63543 2.38456 4.10312 2.2036C4.45514 2.06632 4.98524 1.90392 5.96024 1.8596C7.01436 1.81112 7.33101 1.80144 10.0004 1.80144C12.6698 1.80144 12.9868 1.81192 14.0418 1.8596C15.0168 1.904 15.5458 2.0676 15.8989 2.2036C16.3658 2.38456 16.6989 2.60184 17.0492 2.9516C17.3994 3.30136 17.6154 3.63496 17.7972 4.10184C17.9345 4.45384 18.0969 4.98392 18.1412 5.95888C18.1897 7.01384 18.1994 7.3296 18.1994 10.0001C18.1994 12.6706 18.1897 12.9863 18.1412 14.0413C18.0968 15.0162 17.9336 15.5462 17.7972 15.8983C17.6154 16.3652 17.3989 16.6983 17.0492 17.0478C16.6994 17.3972 16.3658 17.614 15.8989 17.7958C15.5469 17.933 15.0168 18.0954 14.0418 18.1398C12.9876 18.1882 12.671 18.1979 10.0004 18.1979C7.32981 18.1979 7.01404 18.1882 5.96024 18.1398ZM5.87744 0.06056C4.81283 0.10904 4.08536 0.27784 3.45006 0.52504C2.79211 0.78032 2.23513 1.1228 1.67855 1.67848C1.12196 2.23416 0.780351 2.792 0.525061 3.44992C0.277851 4.0856 0.109044 4.81264 0.0605624 5.8772C0.0112805 6.94344 0 7.28432 0 10C0 12.7157 0.0112805 13.0566 0.0605624 14.1228C0.109044 15.1874 0.277851 15.9144 0.525061 16.5501C0.780351 17.2076 1.12205 17.7661 1.67855 18.3215C2.23505 18.877 2.79211 19.219 3.45006 19.475C4.08656 19.7222 4.81283 19.891 5.87744 19.9394C6.94428 19.9879 7.28461 20 10.0004 20C12.7162 20 13.0571 19.9887 14.1234 19.9394C15.188 19.891 15.915 19.7222 16.5507 19.475C17.2083 19.219 17.7657 18.8772 18.3223 18.3215C18.8788 17.7658 19.2197 17.2076 19.4757 16.5501C19.723 15.9144 19.8926 15.1874 19.9402 14.1228C19.9887 13.0558 20 12.7157 20 10C20 7.28432 19.9887 6.94344 19.9402 5.8772C19.8918 4.81256 19.723 4.0852 19.4757 3.44992C19.2197 2.7924 18.878 2.23504 18.3223 1.67848C17.7666 1.12192 17.2083 0.78032 16.5515 0.52504C15.915 0.27784 15.188 0.10824 14.1242 0.06056C13.0579 0.01208 12.717 0 10.0012 0C7.28541 0 6.94428 0.01128 5.87744 0.06056Z"/>
</symbol>
<symbol id="icon-telegram" viewBox="0 0 20 20">
	<path d="M1.22617 8.86807C1.22617 8.86807 10.0717 5.23781 13.1395 3.95951C14.3155 3.44823 18.3036 1.812 18.3036 1.812C18.3036 1.812 20.1443 1.09621 19.9909 2.83463C19.9398 3.55049 19.5307 6.05586 19.1217 8.76581C18.5081 12.6006 17.8434 16.7933 17.8434 16.7933C17.8434 16.7933 17.7412 17.9694 16.872 18.1739C16.0028 18.3784 14.5711 17.4581 14.3155 17.2535C14.1109 17.1002 10.4807 14.7993 9.15133 13.6744C8.7934 13.3676 8.38439 12.7541 9.20242 12.0382C11.0431 10.3509 13.2417 8.25453 14.5711 6.92514C15.1847 6.31153 15.7982 4.87988 13.2417 6.6183C9.61151 9.12374 6.0324 11.4758 6.0324 11.4758C6.0324 11.4758 5.21429 11.987 3.68041 11.5269C2.14645 11.0667 0.356899 10.4531 0.356899 10.4531C0.356899 10.4531 -0.870153 9.68618 1.22617 8.86807Z"/>
</symbol>
<symbol id="icon-search" viewBox="0 0 23 23">
	<path d="M38.710696,48.0601792 L43,52.3494831 L41.3494831,54 L37.0601792,49.710696 C35.2632422,51.1481185 32.9839107,52.0076499 30.5038249,52.0076499 C24.7027226,52.0076499 20,47.3049272 20,41.5038249 C20,35.7027226 24.7027226,31 30.5038249,31 C36.3049272,31 41.0076499,35.7027226 41.0076499,41.5038249 C41.0076499,43.9839107 40.1481185,46.2632422 38.710696,48.0601792 Z M36.3875844,47.1716785 C37.8030221,45.7026647 38.6734666,43.7048964 38.6734666,41.5038249 C38.6734666,36.9918565 35.0157934,33.3341833 30.5038249,33.3341833 C25.9918565,33.3341833 22.3341833,36.9918565 22.3341833,41.5038249 C22.3341833,46.0157934 25.9918565,49.6734666 30.5038249,49.6734666 C32.7048964,49.6734666 34.7026647,48.8030221 36.1716785,47.3875844 C36.2023931,47.347638 36.2360451,47.3092237 36.2726343,47.2726343 C36.3092237,47.2360451 36.347638,47.2023931 36.3875844,47.1716785 Z" transform="translate(-20 -31)"/>
</symbol>
<symbol id="icon-cross" viewBox="0 0 16 16">
	<polygon points="6.852 7.649 .399 1.195 1.445 .149 7.899 6.602 14.352 .149 15.399 1.195 8.945 7.649 15.399 14.102 14.352 15.149 7.899 8.695 1.445 15.149 .399 14.102"/>
</symbol>
</defs>
</svg>